<svg xmlns="http://www.w3.org/2000/svg" xmlns:xlink="http://www.w3.org/1999/xlink" contentStyleType="text/css" height="572px" preserveAspectRatio="none" style="width:669px;height:572px;background:#FFFFFF;" version="1.1" viewBox="0 0 669 572" width="669px" zoomAndPan="magnify"><defs/><g><!--class Users--><g id="elem_Users"><rect codeLine="1" fill="#F1F1F1" height="145.7813" id="Users" rx="2.5" ry="2.5" style="stroke:#181818;stroke-width:0.5;" width="278.5195" x="86.49" y="7"/><ellipse cx="201.8977" cy="23" fill="#ADD1B2" rx="11" ry="11" style="stroke:#181818;stroke-width:1.0;"/><path d="M206.0071,29 L198.2883,29 L198.2883,16.6094 L206.0071,16.6094 L206.0071,18.7656 L200.7415,18.7656 L200.7415,21.4375 L205.5071,21.4375 L205.5071,23.5938 L200.7415,23.5938 L200.7415,26.8438 L206.0071,26.8438 L206.0071,29 Z " fill="#000000"/><text fill="#000000" font-family="sans-serif" font-size="14" lengthAdjust="spacing" textLength="39.2041" x="222.3977" y="27.8467">Users</text><line style="stroke:#181818;stroke-width:0.5;" x1="87.49" x2="364.0095" y1="39" y2="39"/><ellipse cx="97.49" cy="52.6484" fill="#000000" rx="3" ry="3" style="stroke:#000000;stroke-width:1.0;"/><text fill="#000000" font-family="sans-serif" font-size="14" lengthAdjust="spacing" textLength="122.7939" x="106.49" y="55.9951">UserID : INT &#171;PK&#187;</text><line style="stroke:#181818;stroke-width:1.0;" x1="87.49" x2="364.0095" y1="63.2969" y2="63.2969"/><text fill="#000000" font-family="sans-serif" font-size="14" lengthAdjust="spacing" textLength="182.458" x="92.49" y="80.292">Username : VARCHAR(50)</text><text fill="#000000" font-family="sans-serif" font-size="14" lengthAdjust="spacing" textLength="221.293" x="92.49" y="96.5889">PasswordHash : VARCHAR(255)</text><text fill="#000000" font-family="sans-serif" font-size="14" lengthAdjust="spacing" textLength="158.5938" x="92.49" y="112.8857">Email : VARCHAR(100)</text><text fill="#000000" font-family="sans-serif" font-size="14" lengthAdjust="spacing" textLength="266.5195" x="92.49" y="129.1826">UserType : ENUM('customer', 'admin')</text><text fill="#000000" font-family="sans-serif" font-size="14" lengthAdjust="spacing" textLength="165.5391" x="92.49" y="145.4795">CreatedAt : TIMESTAMP</text></g><!--class FoodItems--><g id="elem_FoodItems"><rect codeLine="11" fill="#F1F1F1" height="129.4844" id="FoodItems" rx="2.5" ry="2.5" style="stroke:#181818;stroke-width:0.5;" width="182.8232" x="479.34" y="229.78"/><ellipse cx="529.8849" cy="245.78" fill="#ADD1B2" rx="11" ry="11" style="stroke:#181818;stroke-width:1.0;"/><path d="M533.9943,251.78 L526.2755,251.78 L526.2755,239.3894 L533.9943,239.3894 L533.9943,241.5456 L528.7287,241.5456 L528.7287,244.2175 L533.4943,244.2175 L533.4943,246.3737 L528.7287,246.3737 L528.7287,249.6237 L533.9943,249.6237 L533.9943,251.78 Z " fill="#000000"/><text fill="#000000" font-family="sans-serif" font-size="14" lengthAdjust="spacing" textLength="73.2334" x="550.3849" y="250.6267">FoodItems</text><line style="stroke:#181818;stroke-width:0.5;" x1="480.34" x2="661.1632" y1="261.78" y2="261.78"/><ellipse cx="490.34" cy="275.4284" fill="#000000" rx="3" ry="3" style="stroke:#000000;stroke-width:1.0;"/><text fill="#000000" font-family="sans-serif" font-size="14" lengthAdjust="spacing" textLength="156.8232" x="499.34" y="278.7751">FoodItemID : INT &#171;PK&#187;</text><line style="stroke:#181818;stroke-width:1.0;" x1="480.34" x2="661.1632" y1="286.0769" y2="286.0769"/><text fill="#000000" font-family="sans-serif" font-size="14" lengthAdjust="spacing" textLength="161.0547" x="485.34" y="303.072">Name : VARCHAR(100)</text><text fill="#000000" font-family="sans-serif" font-size="14" lengthAdjust="spacing" textLength="128.8916" x="485.34" y="319.3689">Description : TEXT</text><text fill="#000000" font-family="sans-serif" font-size="14" lengthAdjust="spacing" textLength="157.5479" x="485.34" y="335.6657">Price : DECIMAL(10, 2)</text><text fill="#000000" font-family="sans-serif" font-size="14" lengthAdjust="spacing" textLength="157.5684" x="485.34" y="351.9626">IsAvailable : BOOLEAN</text></g><!--class Orders--><g id="elem_Orders"><rect codeLine="20" fill="#F1F1F1" height="129.4844" id="Orders" rx="2.5" ry="2.5" style="stroke:#181818;stroke-width:0.5;" width="437.4961" x="7" y="229.78"/><ellipse cx="197.8354" cy="245.78" fill="#ADD1B2" rx="11" ry="11" style="stroke:#181818;stroke-width:1.0;"/><path d="M201.9448,251.78 L194.2261,251.78 L194.2261,239.3894 L201.9448,239.3894 L201.9448,241.5456 L196.6792,241.5456 L196.6792,244.2175 L201.4448,244.2175 L201.4448,246.3737 L196.6792,246.3737 L196.6792,249.6237 L201.9448,249.6237 L201.9448,251.78 Z " fill="#000000"/><text fill="#000000" font-family="sans-serif" font-size="14" lengthAdjust="spacing" textLength="47.3252" x="218.3354" y="250.6267">Orders</text><line style="stroke:#181818;stroke-width:0.5;" x1="8" x2="443.4961" y1="261.78" y2="261.78"/><ellipse cx="18" cy="275.4284" fill="#000000" rx="3" ry="3" style="stroke:#000000;stroke-width:1.0;"/><text fill="#000000" font-family="sans-serif" font-size="14" lengthAdjust="spacing" textLength="130.915" x="27" y="278.7751">OrderID : INT &#171;PK&#187;</text><line style="stroke:#181818;stroke-width:1.0;" x1="8" x2="443.4961" y1="286.0769" y2="286.0769"/><text fill="#000000" font-family="sans-serif" font-size="14" lengthAdjust="spacing" textLength="122.4043" x="13" y="303.072">UserID : INT &#171;FK&#187;</text><text fill="#000000" font-family="sans-serif" font-size="14" lengthAdjust="spacing" textLength="213.2402" x="13" y="319.3689">TotalAmount : DECIMAL(10, 2)</text><text fill="#000000" font-family="sans-serif" font-size="14" lengthAdjust="spacing" textLength="168.2529" x="13" y="335.6657">OrderDate : TIMESTAMP</text><text fill="#000000" font-family="sans-serif" font-size="14" lengthAdjust="spacing" textLength="425.4961" x="13" y="351.9626">Status : ENUM('pending', 'preparing', 'delivered', 'cancelled')</text></g><!--class OrderDetails--><g id="elem_OrderDetails"><rect codeLine="29" fill="#F1F1F1" height="129.4844" id="OrderDetails" rx="2.5" ry="2.5" style="stroke:#181818;stroke-width:0.5;" width="198.1563" x="360.67" y="436.27"/><ellipse cx="411.2149" cy="452.27" fill="#ADD1B2" rx="11" ry="11" style="stroke:#181818;stroke-width:1.0;"/><path d="M415.3243,458.27 L407.6055,458.27 L407.6055,445.8794 L415.3243,445.8794 L415.3243,448.0356 L410.0587,448.0356 L410.0587,450.7075 L414.8243,450.7075 L414.8243,452.8638 L410.0587,452.8638 L410.0587,456.1138 L415.3243,456.1138 L415.3243,458.27 Z " fill="#000000"/><text fill="#000000" font-family="sans-serif" font-size="14" lengthAdjust="spacing" textLength="88.5664" x="431.7149" y="457.1167">OrderDetails</text><line style="stroke:#181818;stroke-width:0.5;" x1="361.67" x2="557.8263" y1="468.27" y2="468.27"/><ellipse cx="371.67" cy="481.9184" fill="#000000" rx="3" ry="3" style="stroke:#000000;stroke-width:1.0;"/><text fill="#000000" font-family="sans-serif" font-size="14" lengthAdjust="spacing" textLength="172.1563" x="380.67" y="485.2651">OrderDetailID : INT &#171;PK&#187;</text><line style="stroke:#181818;stroke-width:1.0;" x1="361.67" x2="557.8263" y1="492.5669" y2="492.5669"/><text fill="#000000" font-family="sans-serif" font-size="14" lengthAdjust="spacing" textLength="130.5254" x="366.67" y="509.562">OrderID : INT &#171;FK&#187;</text><text fill="#000000" font-family="sans-serif" font-size="14" lengthAdjust="spacing" textLength="156.4336" x="366.67" y="525.8589">FoodItemID : INT &#171;FK&#187;</text><text fill="#000000" font-family="sans-serif" font-size="14" lengthAdjust="spacing" textLength="97.2686" x="366.67" y="542.1557">Quantity : INT</text><text fill="#000000" font-family="sans-serif" font-size="14" lengthAdjust="spacing" textLength="157.5479" x="366.67" y="558.4526">Price : DECIMAL(10, 2)</text></g><!--link Users to Orders--><g id="link_Users_Orders"><path codeLine="39" d="M225.75,161.18 C225.75,185.98 225.75,187.54 225.75,211.63 " fill="none" id="Users-Orders" style="stroke:#181818;stroke-width:1.0;"/><line style="stroke:#181818;stroke-width:1.0;" x1="221.75" x2="229.75" y1="157.18" y2="157.18"/><line style="stroke:#181818;stroke-width:1.0;" x1="221.75" x2="229.75" y1="160.18" y2="160.18"/><line style="stroke:#181818;stroke-width:1.0;" x1="225.75" x2="225.75" y1="161.18" y2="153.18"/><line style="stroke:#181818;stroke-width:1.0;" x1="225.75" x2="231.75" y1="221.63" y2="229.63"/><line style="stroke:#181818;stroke-width:1.0;" x1="225.75" x2="219.75" y1="221.63" y2="229.63"/><line style="stroke:#181818;stroke-width:1.0;" x1="225.75" x2="225.75" y1="221.63" y2="229.63"/><ellipse cx="225.75" cy="215.63" fill="none" rx="4" ry="4" style="stroke:#181818;stroke-width:1.0;"/><text fill="#000000" font-family="sans-serif" font-size="13" lengthAdjust="spacing" textLength="41.7485" x="226.75" y="195.8469">places</text></g><!--link Orders to OrderDetails--><g id="link_Orders_OrderDetails"><path codeLine="40" d="M305.1734,364.9248 C333.0434,389.2848 345.2067,399.9148 373.0567,424.2548 " fill="none" id="Orders-OrderDetails" style="stroke:#181818;stroke-width:1.0;"/><line style="stroke:#181818;stroke-width:1.0;" x1="299.5293" x2="304.7941" y1="365.3041" y2="359.2807"/><line style="stroke:#181818;stroke-width:1.0;" x1="301.7881" x2="307.0529" y1="367.2784" y2="361.255"/><line style="stroke:#181818;stroke-width:1.0;" x1="305.1734" x2="299.15" y1="364.9248" y2="359.66"/><line style="stroke:#181818;stroke-width:1.0;" x1="380.5863" x2="390.5584" y1="430.8355" y2="431.5822"/><line style="stroke:#181818;stroke-width:1.0;" x1="380.5863" x2="382.6616" y1="430.8355" y2="440.6178"/><line style="stroke:#181818;stroke-width:1.0;" x1="380.5863" x2="386.61" y1="430.8355" y2="436.1"/><ellipse cx="376.0685" cy="426.8871" fill="none" rx="4" ry="4" style="stroke:#181818;stroke-width:1.0;"/><text fill="#000000" font-family="sans-serif" font-size="13" lengthAdjust="spacing" textLength="55.0278" x="351.75" y="402.3369">contains</text></g><!--link FoodItems to OrderDetails--><g id="link_FoodItems_OrderDetails"><path codeLine="41" d="M532.1142,366.6913 C518.8942,391.0513 516.2361,395.9398 503.0261,420.2798 " fill="none" id="FoodItems-OrderDetails" style="stroke:#181818;stroke-width:1.0;"/><line style="stroke:#181818;stroke-width:1.0;" x1="530.5064" x2="537.5377" y1="361.2677" y2="365.0836"/><line style="stroke:#181818;stroke-width:1.0;" x1="529.0755" x2="536.1068" y1="363.9045" y2="367.7203"/><line style="stroke:#181818;stroke-width:1.0;" x1="532.1142" x2="535.93" y1="366.6913" y2="359.66"/><line style="stroke:#181818;stroke-width:1.0;" x1="498.256" x2="499.7134" y1="429.0688" y2="438.962"/><line style="stroke:#181818;stroke-width:1.0;" x1="498.256" x2="489.1666" y1="429.0688" y2="433.238"/><line style="stroke:#181818;stroke-width:1.0;" x1="498.256" x2="494.44" y1="429.0688" y2="436.1"/><ellipse cx="501.1181" cy="423.7954" fill="none" rx="4" ry="4" style="stroke:#181818;stroke-width:1.0;"/><text fill="#000000" font-family="sans-serif" font-size="13" lengthAdjust="spacing" textLength="55.0278" x="518.75" y="402.3369">contains</text></g><!--SRC=[XP9HRu8m58NV-HMDB-WYYJFnPJ4cdM0a4tIAoruxk9bDe2LjSJ6w_xuMaA0poakvFQVj_KuBJ55rG9sj124xw6WX_JqXK_ekUa5-6A7nUFKscPIAuvI3aHd9G1i-y7ewn-lkQD0hfHMHyeUBP4xahYKFHwDAzp92qvRmFAWNcZsZGsxszC9jqBNZGYgUWR3xo2P9HfbT6QS2Y884A-sC_C3RH3XOMR-M1JNBZFF4Lv2rUCvJTvZ2IvwcBnTaB6YkA6VcGEypgZW5ZOtVzQP-W1VQtqV3QeKlyLv3ag_K65wNouM7mtQ3Iv5Sf5tM3-9koREp7755KfpnWgdRdPGRkpgjYwYCib545RB9EWUMKFPjeiu5v4JKHG8ftOE0n1GnOJ6agIvw_sXSK1hvcgcQlKDsJTwWtRYmHdilI7LqgTox3TsbZTQG4dDxSaTpQPKF7PrEZiEFrV4cXJmbCKYhhjjg3QOzCMVwbqchULyFZ7y0]--></g></svg>